<?xml version="1.0" encoding="UTF-8" standalone="no"?>
<!DOCTYPE svg PUBLIC "-//W3C//DTD SVG 1.1//EN"
 "http://www.w3.org/Graphics/SVG/1.1/DTD/svg11.dtd">
<!-- Generated by graphviz version 2.38.0 (20140413.2041)
 -->
<!-- Title: hello Pages: 1 -->
<svg width="1304pt" height="548pt"
 viewBox="0.00 0.00 1304.29 548.00" xmlns="http://www.w3.org/2000/svg" xmlns:xlink="http://www.w3.org/1999/xlink">
<g id="graph0" class="graph" transform="scale(1 1) rotate(0) translate(4 544)">
<title>hello</title>
<polygon fill="white" stroke="none" points="-4,4 -4,-544 1300.29,-544 1300.29,4 -4,4"/>
<!-- openCamera -->
<g id="node1" class="node"><title>openCamera</title>
<ellipse fill="none" stroke="black" cx="829.146" cy="-90" rx="55.7903" ry="18"/>
<text text-anchor="middle" x="829.146" y="-86.3" font-family="Times,serif" font-size="14.00">openCamera</text>
</g>
<!-- OPEN -->
<g id="node2" class="node"><title>OPEN</title>
<ellipse fill="none" stroke="black" cx="499.146" cy="-18" rx="33.5952" ry="18"/>
<text text-anchor="middle" x="499.146" y="-14.3" font-family="Times,serif" font-size="14.00">OPEN</text>
</g>
<!-- openCamera&#45;&gt;OPEN -->
<g id="edge1" class="edge"><title>openCamera&#45;&gt;OPEN</title>
<path fill="none" stroke="red" d="M784.445,-79.1822C774.729,-76.7268 764.58,-74.1751 755.146,-72 679.44,-54.545 590.796,-37.4958 540.064,-27.6307"/>
<polygon fill="red" stroke="red" points="540.619,-24.1732 530.135,-25.6962 539.281,-31.044 540.619,-24.1732"/>
</g>
<!-- OPEN&#45;&gt;openCamera -->
<g id="edge42" class="edge"><title>OPEN&#45;&gt;openCamera</title>
<path fill="none" stroke="green" d="M531.312,-23.8273C582.929,-32.5811 686.509,-52.0249 773.146,-72 775.97,-72.6511 778.858,-73.3358 781.762,-74.0417"/>
<polygon fill="green" stroke="green" points="781.084,-77.4798 791.634,-76.5043 782.779,-70.6879 781.084,-77.4798"/>
</g>
<!-- getControls -->
<g id="node3" class="node"><title>getControls</title>
<ellipse fill="none" stroke="black" cx="993.146" cy="-90" rx="51.9908" ry="18"/>
<text text-anchor="middle" x="993.146" y="-86.3" font-family="Times,serif" font-size="14.00">getControls</text>
</g>
<!-- getControls&#45;&gt;OPEN -->
<g id="edge2" class="edge"><title>getControls&#45;&gt;OPEN</title>
<path fill="none" stroke="green" d="M953.896,-78.0051C945.139,-75.8001 935.864,-73.6555 927.146,-72 787.867,-45.5531 620.481,-29.2343 542.757,-22.5294"/>
<polygon fill="green" stroke="green" points="542.658,-19.0084 532.397,-21.647 542.064,-25.9831 542.658,-19.0084"/>
</g>
<!-- setFormat -->
<g id="node4" class="node"><title>setFormat</title>
<ellipse fill="none" stroke="black" cx="46.1459" cy="-234" rx="46.2923" ry="18"/>
<text text-anchor="middle" x="46.1459" y="-230.3" font-family="Times,serif" font-size="14.00">setFormat</text>
</g>
<!-- setFormat&#45;&gt;OPEN -->
<g id="edge3" class="edge"><title>setFormat&#45;&gt;OPEN</title>
<path fill="none" stroke="green" d="M42.4144,-216.022C36.2848,-183.117 28.3306,-110.52 67.1459,-72 94.4337,-44.9196 351.346,-27.4008 455.551,-21.3553"/>
<polygon fill="green" stroke="green" points="455.948,-24.8384 465.732,-20.7731 455.548,-17.8498 455.948,-24.8384"/>
</g>
<!-- REQBUFS -->
<g id="node5" class="node"><title>REQBUFS</title>
<ellipse fill="none" stroke="black" cx="124.146" cy="-162" rx="50.0912" ry="18"/>
<text text-anchor="middle" x="124.146" y="-158.3" font-family="Times,serif" font-size="14.00">REQBUFS</text>
</g>
<!-- setFormat&#45;&gt;REQBUFS -->
<g id="edge4" class="edge"><title>setFormat&#45;&gt;REQBUFS</title>
<path fill="none" stroke="red" d="M63.8453,-217.116C74.144,-207.874 87.3012,-196.066 98.6961,-185.84"/>
<polygon fill="red" stroke="red" points="101.142,-188.348 106.247,-179.064 96.4664,-183.138 101.142,-188.348"/>
</g>
<!-- reqBuffers -->
<g id="node6" class="node"><title>reqBuffers</title>
<ellipse fill="none" stroke="black" cx="124.146" cy="-90" rx="48.1917" ry="18"/>
<text text-anchor="middle" x="124.146" y="-86.3" font-family="Times,serif" font-size="14.00">reqBuffers</text>
</g>
<!-- REQBUFS&#45;&gt;reqBuffers -->
<g id="edge44" class="edge"><title>REQBUFS&#45;&gt;reqBuffers</title>
<path fill="none" stroke="green" d="M118.268,-144.055C117.45,-136.346 117.207,-127.027 117.541,-118.364"/>
<polygon fill="green" stroke="green" points="121.04,-118.491 118.233,-108.275 114.057,-118.012 121.04,-118.491"/>
</g>
<!-- reqBuffers&#45;&gt;OPEN -->
<g id="edge5" class="edge"><title>reqBuffers&#45;&gt;OPEN</title>
<path fill="none" stroke="green" d="M161.234,-78.5376C170.019,-76.229 179.384,-73.9062 188.146,-72 283.316,-51.2956 396.329,-33.7822 456.477,-25.0166"/>
<polygon fill="green" stroke="green" points="457.329,-28.4299 466.724,-23.5335 456.326,-21.502 457.329,-28.4299"/>
</g>
<!-- reqBuffers&#45;&gt;REQBUFS -->
<g id="edge7" class="edge"><title>reqBuffers&#45;&gt;REQBUFS</title>
<path fill="none" stroke="red" d="M130.059,-108.275C130.86,-116.03 131.086,-125.362 130.736,-134.005"/>
<polygon fill="red" stroke="red" points="127.24,-133.832 130.024,-144.055 134.223,-134.327 127.24,-133.832"/>
</g>
<!-- FMT -->
<g id="node7" class="node"><title>FMT</title>
<ellipse fill="none" stroke="black" cx="66.1459" cy="-18" rx="29.4969" ry="18"/>
<text text-anchor="middle" x="66.1459" y="-14.3" font-family="Times,serif" font-size="14.00">FMT</text>
</g>
<!-- reqBuffers&#45;&gt;FMT -->
<g id="edge6" class="edge"><title>reqBuffers&#45;&gt;FMT</title>
<path fill="none" stroke="green" d="M110.401,-72.411C102.968,-63.4407 93.6667,-52.2148 85.5119,-42.3727"/>
<polygon fill="green" stroke="green" points="88.073,-39.978 78.9977,-34.5108 82.6829,-44.4441 88.073,-39.978"/>
</g>
<!-- FMT&#45;&gt;setFormat -->
<g id="edge43" class="edge"><title>FMT&#45;&gt;setFormat</title>
<path fill="none" stroke="green" d="M52.8001,-34.5117C45.1184,-44.4943 36.2057,-58.1526 32.1459,-72 18.7552,-117.673 29.2591,-173.513 37.8697,-205.989"/>
<polygon fill="green" stroke="green" points="34.5112,-206.976 40.5661,-215.67 41.2545,-205.097 34.5112,-206.976"/>
</g>
<!-- freeBuffers -->
<g id="node8" class="node"><title>freeBuffers</title>
<ellipse fill="none" stroke="black" cx="164.146" cy="-522" rx="50.8918" ry="18"/>
<text text-anchor="middle" x="164.146" y="-518.3" font-family="Times,serif" font-size="14.00">freeBuffers</text>
</g>
<!-- freeBuffers&#45;&gt;OPEN -->
<g id="edge8" class="edge"><title>freeBuffers&#45;&gt;OPEN</title>
<path fill="none" stroke="green" d="M164.146,-503.951C164.146,-477.292 164.146,-424.115 164.146,-379 164.146,-379 164.146,-379 164.146,-305 164.146,-249.731 209.303,-108.11 251.146,-72 281.378,-45.9098 393.289,-30.1826 455.944,-23.2322"/>
<polygon fill="green" stroke="green" points="456.362,-26.7075 465.928,-22.1528 455.609,-19.7481 456.362,-26.7075"/>
</g>
<!-- freeBuffers&#45;&gt;REQBUFS -->
<g id="edge9" class="edge"><title>freeBuffers&#45;&gt;REQBUFS</title>
<path fill="none" stroke="green" d="M156.254,-503.928C144.858,-477.671 125.146,-425.53 125.146,-379 125.146,-379 125.146,-379 125.146,-305 125.146,-264.995 124.744,-218.652 124.45,-190.079"/>
<polygon fill="green" stroke="green" points="127.949,-190.011 124.343,-180.049 120.95,-190.086 127.949,-190.011"/>
</g>
<!-- MMAP -->
<g id="node9" class="node"><title>MMAP</title>
<ellipse fill="none" stroke="black" cx="503.146" cy="-450" rx="38.1938" ry="18"/>
<text text-anchor="middle" x="503.146" y="-446.3" font-family="Times,serif" font-size="14.00">MMAP</text>
</g>
<!-- freeBuffers&#45;&gt;MMAP -->
<g id="edge10" class="edge"><title>freeBuffers&#45;&gt;MMAP</title>
<path fill="none" stroke="red" d="M206.737,-512.205C271.218,-498.891 393.033,-473.737 458.633,-460.192"/>
<polygon fill="red" stroke="red" points="459.575,-463.571 468.661,-458.121 458.16,-456.715 459.575,-463.571"/>
</g>
<!-- mMAP -->
<g id="node14" class="node"><title>mMAP</title>
<ellipse fill="none" stroke="black" cx="470.146" cy="-378" rx="37.8943" ry="18"/>
<text text-anchor="middle" x="470.146" y="-374.3" font-family="Times,serif" font-size="14.00">mMAP</text>
</g>
<!-- MMAP&#45;&gt;mMAP -->
<g id="edge47" class="edge"><title>MMAP&#45;&gt;mMAP</title>
<path fill="none" stroke="green" d="M489.691,-432.765C484.983,-424.697 480.032,-414.741 476.111,-405.598"/>
<polygon fill="green" stroke="green" points="479.285,-404.109 472.322,-396.124 472.786,-406.709 479.285,-404.109"/>
</g>
<!-- newBufArray -->
<g id="node10" class="node"><title>newBufArray</title>
<ellipse fill="none" stroke="black" cx="696.146" cy="-90" rx="59.2899" ry="18"/>
<text text-anchor="middle" x="696.146" y="-86.3" font-family="Times,serif" font-size="14.00">newBufArray</text>
</g>
<!-- BUFFERS_ARRAY -->
<g id="node11" class="node"><title>BUFFERS_ARRAY</title>
<ellipse fill="none" stroke="black" cx="801.146" cy="-162" rx="83.6854" ry="18"/>
<text text-anchor="middle" x="801.146" y="-158.3" font-family="Times,serif" font-size="14.00">BUFFERS_ARRAY</text>
</g>
<!-- newBufArray&#45;&gt;BUFFERS_ARRAY -->
<g id="edge11" class="edge"><title>newBufArray&#45;&gt;BUFFERS_ARRAY</title>
<path fill="none" stroke="red" d="M724.363,-106.038C739.676,-115.472 758.418,-127.812 773.616,-138.408"/>
<polygon fill="red" stroke="red" points="771.917,-141.493 782.102,-144.411 775.96,-135.779 771.917,-141.493"/>
</g>
<!-- BUFFERS_ARRAY&#45;&gt;newBufArray -->
<g id="edge45" class="edge"><title>BUFFERS_ARRAY&#45;&gt;newBufArray</title>
<path fill="none" stroke="green" d="M771.559,-145.116C756.308,-135.674 737.94,-123.556 723.087,-113.181"/>
<polygon fill="green" stroke="green" points="724.98,-110.233 714.798,-107.307 720.933,-115.944 724.98,-110.233"/>
</g>
<!-- queryAllBuffers -->
<g id="node12" class="node"><title>queryAllBuffers</title>
<ellipse fill="none" stroke="black" cx="374.146" cy="-234" rx="68.4888" ry="18"/>
<text text-anchor="middle" x="374.146" y="-230.3" font-family="Times,serif" font-size="14.00">queryAllBuffers</text>
</g>
<!-- queryAllBuffers&#45;&gt;OPEN -->
<g id="edge12" class="edge"><title>queryAllBuffers&#45;&gt;OPEN</title>
<path fill="none" stroke="green" d="M372.269,-215.895C369.729,-184.333 368.656,-116.139 400.146,-72 414.515,-51.8599 438.965,-38.6635 459.971,-30.4756"/>
<polygon fill="green" stroke="green" points="461.44,-33.6656 469.639,-26.9547 459.045,-27.0882 461.44,-33.6656"/>
</g>
<!-- queryAllBuffers&#45;&gt;REQBUFS -->
<g id="edge13" class="edge"><title>queryAllBuffers&#45;&gt;REQBUFS</title>
<path fill="none" stroke="green" d="M329.162,-220.405C284.987,-208.036 217.812,-189.226 172.508,-176.541"/>
<polygon fill="green" stroke="green" points="173.197,-173.1 162.623,-173.774 171.309,-179.84 173.197,-173.1"/>
</g>
<!-- queryAllBuffers&#45;&gt;BUFFERS_ARRAY -->
<g id="edge14" class="edge"><title>queryAllBuffers&#45;&gt;BUFFERS_ARRAY</title>
<path fill="none" stroke="green" d="M430.408,-223.777C506.465,-211.308 642.261,-189.047 726.699,-175.204"/>
<polygon fill="green" stroke="green" points="727.432,-178.631 736.734,-173.559 726.3,-171.723 727.432,-178.631"/>
</g>
<!-- QUERYBUF -->
<g id="node13" class="node"><title>QUERYBUF</title>
<ellipse fill="none" stroke="black" cx="364.146" cy="-306" rx="57.6901" ry="18"/>
<text text-anchor="middle" x="364.146" y="-302.3" font-family="Times,serif" font-size="14.00">QUERYBUF</text>
</g>
<!-- queryAllBuffers&#45;&gt;QUERYBUF -->
<g id="edge15" class="edge"><title>queryAllBuffers&#45;&gt;QUERYBUF</title>
<path fill="none" stroke="red" d="M377.591,-252.275C377.285,-260.03 376.177,-269.362 374.593,-278.005"/>
<polygon fill="red" stroke="red" points="371.112,-277.544 372.445,-288.055 377.958,-279.007 371.112,-277.544"/>
</g>
<!-- QUERYBUF&#45;&gt;queryAllBuffers -->
<g id="edge46" class="edge"><title>QUERYBUF&#45;&gt;queryAllBuffers</title>
<path fill="none" stroke="green" d="M360.702,-287.697C361.008,-279.983 362.106,-270.712 363.677,-262.112"/>
<polygon fill="green" stroke="green" points="367.149,-262.614 365.807,-252.104 360.302,-261.157 367.149,-262.614"/>
</g>
<!-- mMAP&#45;&gt;OPEN -->
<g id="edge16" class="edge"><title>mMAP&#45;&gt;OPEN</title>
<path fill="none" stroke="green" d="M432.301,-376.071C392.792,-372.979 331.85,-361.861 297.146,-324 269.816,-294.184 278.146,-275.447 278.146,-235 278.146,-235 278.146,-235 278.146,-161 278.146,-76.8016 393.089,-40.1932 457.186,-26.3246"/>
<polygon fill="green" stroke="green" points="457.928,-29.7452 467.011,-24.2902 456.509,-22.8906 457.928,-29.7452"/>
</g>
<!-- mMAP&#45;&gt;REQBUFS -->
<g id="edge17" class="edge"><title>mMAP&#45;&gt;REQBUFS</title>
<path fill="none" stroke="green" d="M432.952,-374.12C389.578,-369.319 317.082,-356.706 264.146,-324 207.883,-289.239 162.001,-224.651 139.387,-188.75"/>
<polygon fill="green" stroke="green" points="142.125,-186.522 133.891,-179.854 136.17,-190.201 142.125,-186.522"/>
</g>
<!-- mMAP&#45;&gt;MMAP -->
<g id="edge20" class="edge"><title>mMAP&#45;&gt;MMAP</title>
<path fill="none" stroke="red" d="M483.547,-395.145C488.242,-403.177 493.183,-413.098 497.106,-422.228"/>
<polygon fill="red" stroke="red" points="493.933,-423.718 500.904,-431.697 500.43,-421.112 493.933,-423.718"/>
</g>
<!-- mMAP&#45;&gt;BUFFERS_ARRAY -->
<g id="edge18" class="edge"><title>mMAP&#45;&gt;BUFFERS_ARRAY</title>
<path fill="none" stroke="green" d="M499.308,-366.368C547.875,-347.82 647.101,-306.291 719.146,-252 743.555,-233.606 766.702,-207.378 782.139,-188.159"/>
<polygon fill="green" stroke="green" points="785.022,-190.155 788.465,-180.135 779.525,-185.821 785.022,-190.155"/>
</g>
<!-- mMAP&#45;&gt;QUERYBUF -->
<g id="edge19" class="edge"><title>mMAP&#45;&gt;QUERYBUF</title>
<path fill="none" stroke="green" d="M448.95,-363.003C433.927,-353.082 413.494,-339.588 396.449,-328.332"/>
<polygon fill="green" stroke="green" points="398.164,-325.271 387.891,-322.681 394.307,-331.112 398.164,-325.271"/>
</g>
<!-- QBUF -->
<g id="node15" class="node"><title>QBUF</title>
<ellipse fill="none" stroke="black" cx="474.146" cy="-306" rx="34.394" ry="18"/>
<text text-anchor="middle" x="474.146" y="-302.3" font-family="Times,serif" font-size="14.00">QBUF</text>
</g>
<!-- mMAP&#45;&gt;QBUF -->
<g id="edge21" class="edge"><title>mMAP&#45;&gt;QBUF</title>
<path fill="none" stroke="red" d="M471.135,-359.697C471.575,-351.983 472.105,-342.712 472.597,-334.112"/>
<polygon fill="red" stroke="red" points="476.092,-334.288 473.169,-324.104 469.104,-333.888 476.092,-334.288"/>
</g>
<!-- qbuf -->
<g id="node16" class="node"><title>qbuf</title>
<ellipse fill="none" stroke="black" cx="683.146" cy="-234" rx="27" ry="18"/>
<text text-anchor="middle" x="683.146" y="-230.3" font-family="Times,serif" font-size="14.00">qbuf</text>
</g>
<!-- QBUF&#45;&gt;qbuf -->
<g id="edge48" class="edge"><title>QBUF&#45;&gt;qbuf</title>
<path fill="none" stroke="green" d="M504.284,-297.185C539.157,-287.819 598.076,-270.989 647.146,-252 648.983,-251.289 650.857,-250.526 652.738,-249.731"/>
<polygon fill="green" stroke="green" points="654.337,-252.85 662.046,-245.583 651.488,-246.456 654.337,-252.85"/>
</g>
<!-- qbuf&#45;&gt;OPEN -->
<g id="edge22" class="edge"><title>qbuf&#45;&gt;OPEN</title>
<path fill="none" stroke="green" d="M684.416,-215.967C685.019,-197.033 683.524,-166.202 670.146,-144 661.275,-129.279 574.165,-69.3955 527.82,-38.1628"/>
<polygon fill="green" stroke="green" points="529.65,-35.176 519.399,-32.5008 525.745,-40.9851 529.65,-35.176"/>
</g>
<!-- qbuf&#45;&gt;MMAP -->
<g id="edge23" class="edge"><title>qbuf&#45;&gt;MMAP</title>
<path fill="none" stroke="green" d="M670.852,-250.241C647.592,-278.996 595.412,-343.118 550.146,-396 541.857,-405.683 532.577,-416.212 524.466,-425.316"/>
<polygon fill="green" stroke="green" points="521.749,-423.104 517.693,-432.892 526.967,-427.769 521.749,-423.104"/>
</g>
<!-- qbuf&#45;&gt;BUFFERS_ARRAY -->
<g id="edge24" class="edge"><title>qbuf&#45;&gt;BUFFERS_ARRAY</title>
<path fill="none" stroke="green" d="M702.631,-221.441C719.51,-211.428 744.373,-196.679 764.898,-184.503"/>
<polygon fill="green" stroke="green" points="766.87,-187.403 773.685,-179.29 763.299,-181.382 766.87,-187.403"/>
</g>
<!-- STREAM -->
<g id="node17" class="node"><title>STREAM</title>
<ellipse fill="none" stroke="black" cx="614.146" cy="-162" rx="46.5926" ry="18"/>
<text text-anchor="middle" x="614.146" y="-158.3" font-family="Times,serif" font-size="14.00">STREAM</text>
</g>
<!-- qbuf&#45;&gt;STREAM -->
<g id="edge25" class="edge"><title>qbuf&#45;&gt;STREAM</title>
<path fill="none" stroke="red" d="M668.849,-218.496C659.765,-209.28 647.794,-197.136 637.368,-186.559"/>
<polygon fill="red" stroke="red" points="639.625,-183.863 630.113,-179.198 634.64,-188.777 639.625,-183.863"/>
</g>
<!-- startStream -->
<g id="node18" class="node"><title>startStream</title>
<ellipse fill="none" stroke="black" cx="460.146" cy="-90" rx="51.1914" ry="18"/>
<text text-anchor="middle" x="460.146" y="-86.3" font-family="Times,serif" font-size="14.00">startStream</text>
</g>
<!-- STREAM&#45;&gt;startStream -->
<g id="edge49" class="edge"><title>STREAM&#45;&gt;startStream</title>
<path fill="none" stroke="green" d="M585.18,-147.834C561.046,-136.864 526.432,-121.13 499.739,-108.997"/>
<polygon fill="green" stroke="green" points="500.849,-105.657 490.297,-104.705 497.953,-112.03 500.849,-105.657"/>
</g>
<!-- startStream&#45;&gt;OPEN -->
<g id="edge26" class="edge"><title>startStream&#45;&gt;OPEN</title>
<path fill="none" stroke="green" d="M469.587,-72.055C474.186,-63.8006 479.812,-53.7014 484.918,-44.5378"/>
<polygon fill="green" stroke="green" points="487.982,-46.2282 489.792,-35.789 481.867,-42.8212 487.982,-46.2282"/>
</g>
<!-- startStream&#45;&gt;MMAP -->
<g id="edge27" class="edge"><title>startStream&#45;&gt;MMAP</title>
<path fill="none" stroke="green" d="M466.684,-108.06C470.536,-118.387 475.377,-131.865 479.146,-144 512.739,-252.17 531.731,-283.677 517.146,-396 516.013,-404.723 513.874,-414.055 511.602,-422.42"/>
<polygon fill="green" stroke="green" points="508.236,-421.459 508.824,-432.038 514.962,-423.402 508.236,-421.459"/>
</g>
<!-- startStream&#45;&gt;QBUF -->
<g id="edge28" class="edge"><title>startStream&#45;&gt;QBUF</title>
<path fill="none" stroke="green" d="M461.273,-108.232C463.7,-145.324 469.434,-232.981 472.361,-277.712"/>
<polygon fill="green" stroke="green" points="468.878,-278.099 473.024,-287.849 475.864,-277.642 468.878,-278.099"/>
</g>
<!-- startClock -->
<g id="node19" class="node"><title>startClock</title>
<ellipse fill="none" stroke="black" cx="1139.15" cy="-522" rx="46.5926" ry="18"/>
<text text-anchor="middle" x="1139.15" y="-518.3" font-family="Times,serif" font-size="14.00">startClock</text>
</g>
<!-- TIMER -->
<g id="node20" class="node"><title>TIMER</title>
<ellipse fill="none" stroke="black" cx="1139.15" cy="-450" rx="38.1938" ry="18"/>
<text text-anchor="middle" x="1139.15" y="-446.3" font-family="Times,serif" font-size="14.00">TIMER</text>
</g>
<!-- startClock&#45;&gt;TIMER -->
<g id="edge29" class="edge"><title>startClock&#45;&gt;TIMER</title>
<path fill="none" stroke="red" d="M1133.27,-504.055C1132.44,-496.231 1132.2,-486.748 1132.56,-477.977"/>
<polygon fill="red" stroke="red" points="1136.06,-478.013 1133.28,-467.789 1129.08,-477.514 1136.06,-478.013"/>
</g>
<!-- TIMER&#45;&gt;startClock -->
<g id="edge50" class="edge"><title>TIMER&#45;&gt;startClock</title>
<path fill="none" stroke="green" d="M1145.01,-467.789C1145.85,-475.591 1146.09,-485.067 1145.74,-493.848"/>
<polygon fill="green" stroke="green" points="1142.24,-493.834 1145.02,-504.055 1149.22,-494.325 1142.24,-493.834"/>
</g>
<!-- stopClock -->
<g id="node21" class="node"><title>stopClock</title>
<ellipse fill="none" stroke="black" cx="1250.15" cy="-522" rx="46.2923" ry="18"/>
<text text-anchor="middle" x="1250.15" y="-518.3" font-family="Times,serif" font-size="14.00">stopClock</text>
</g>
<!-- stopClock&#45;&gt;TIMER -->
<g id="edge30" class="edge"><title>stopClock&#45;&gt;TIMER</title>
<path fill="none" stroke="green" d="M1226.88,-506.326C1210.27,-495.852 1187.77,-481.662 1169.71,-470.276"/>
<polygon fill="green" stroke="green" points="1171.58,-467.313 1161.25,-464.94 1167.84,-473.234 1171.58,-467.313"/>
</g>
<!-- stopStream -->
<g id="node22" class="node"><title>stopStream</title>
<ellipse fill="none" stroke="black" cx="587.146" cy="-234" rx="50.8918" ry="18"/>
<text text-anchor="middle" x="587.146" y="-230.3" font-family="Times,serif" font-size="14.00">stopStream</text>
</g>
<!-- stopStream&#45;&gt;OPEN -->
<g id="edge31" class="edge"><title>stopStream&#45;&gt;OPEN</title>
<path fill="none" stroke="green" d="M577.022,-216.171C571.091,-205.926 563.7,-192.453 558.146,-180 537.421,-133.527 537.966,-119.662 520.146,-72 516.857,-63.2045 513.122,-53.6489 509.723,-45.1046"/>
<polygon fill="green" stroke="green" points="512.901,-43.6264 505.934,-35.645 506.403,-46.2294 512.901,-43.6264"/>
</g>
<!-- stopStream&#45;&gt;STREAM -->
<g id="edge32" class="edge"><title>stopStream&#45;&gt;STREAM</title>
<path fill="none" stroke="green" d="M593.682,-216.055C596.721,-208.176 600.408,-198.617 603.811,-189.794"/>
<polygon fill="green" stroke="green" points="607.149,-190.865 607.483,-180.275 600.618,-188.346 607.149,-190.865"/>
</g>
<!-- freeMmap -->
<g id="node23" class="node"><title>freeMmap</title>
<ellipse fill="none" stroke="black" cx="747.146" cy="-522" rx="48.1917" ry="18"/>
<text text-anchor="middle" x="747.146" y="-518.3" font-family="Times,serif" font-size="14.00">freeMmap</text>
</g>
<!-- freeMmap&#45;&gt;OPEN -->
<g id="edge33" class="edge"><title>freeMmap&#45;&gt;OPEN</title>
<path fill="none" stroke="green" d="M770.578,-506.195C816.336,-475.252 913.146,-398.924 913.146,-307 913.146,-307 913.146,-307 913.146,-161 913.146,-120.553 923.825,-99.479 894.146,-72 843.915,-25.4923 635.345,-19.2159 543.221,-18.7633"/>
<polygon fill="green" stroke="green" points="543.114,-15.2631 533.104,-18.735 543.094,-22.2631 543.114,-15.2631"/>
</g>
<!-- freeMmap&#45;&gt;MMAP -->
<g id="edge34" class="edge"><title>freeMmap&#45;&gt;MMAP</title>
<path fill="none" stroke="green" d="M710.088,-510.369C665.623,-497.612 591.273,-476.282 544.842,-462.962"/>
<polygon fill="green" stroke="green" points="545.673,-459.559 535.096,-460.166 543.743,-466.288 545.673,-459.559"/>
</g>
<!-- freeMmap&#45;&gt;BUFFERS_ARRAY -->
<g id="edge35" class="edge"><title>freeMmap&#45;&gt;BUFFERS_ARRAY</title>
<path fill="none" stroke="green" d="M760.704,-504.7C780.282,-479.453 814.146,-428.612 814.146,-379 814.146,-379 814.146,-379 814.146,-305 814.146,-264.829 808.923,-218.53 805.098,-190.013"/>
<polygon fill="green" stroke="green" points="808.551,-189.43 803.714,-180.003 801.617,-190.388 808.551,-189.43"/>
</g>
<!-- freeMmap&#45;&gt;STREAM -->
<g id="edge36" class="edge"><title>freeMmap&#45;&gt;STREAM</title>
<path fill="none" stroke="red" d="M745.368,-503.973C742.745,-477.343 738.146,-424.205 738.146,-379 738.146,-379 738.146,-379 738.146,-305 738.146,-264.553 743.843,-248.031 719.146,-216 704.722,-197.293 681.894,-184.671 661.202,-176.453"/>
<polygon fill="red" stroke="red" points="662.166,-173.078 651.573,-172.874 659.727,-179.639 662.166,-173.078"/>
</g>
<!-- freeBufferArray -->
<g id="node24" class="node"><title>freeBufferArray</title>
<ellipse fill="none" stroke="black" cx="890.146" cy="-522" rx="67.6881" ry="18"/>
<text text-anchor="middle" x="890.146" y="-518.3" font-family="Times,serif" font-size="14.00">freeBufferArray</text>
</g>
<!-- freeBufferArray&#45;&gt;OPEN -->
<g id="edge37" class="edge"><title>freeBufferArray&#45;&gt;OPEN</title>
<path fill="none" stroke="green" d="M934.445,-508.163C988.604,-489.426 1073.15,-448.972 1073.15,-379 1073.15,-379 1073.15,-379 1073.15,-161 1073.15,-120.553 1084.34,-98.9076 1054.15,-72 1016.27,-38.2522 668.241,-24.2348 543.431,-20.2646"/>
<polygon fill="green" stroke="green" points="543.204,-16.7559 533.1,-19.9428 542.986,-23.7525 543.204,-16.7559"/>
</g>
<!-- freeBufferArray&#45;&gt;MMAP -->
<g id="edge39" class="edge"><title>freeBufferArray&#45;&gt;MMAP</title>
<path fill="none" stroke="red" d="M837.879,-510.487C826.753,-508.3 815.067,-506.041 804.146,-504 713.857,-487.129 608.044,-468.84 548.986,-458.765"/>
<polygon fill="red" stroke="red" points="549.313,-455.271 538.867,-457.042 548.137,-462.171 549.313,-455.271"/>
</g>
<!-- freeBufferArray&#45;&gt;BUFFERS_ARRAY -->
<g id="edge38" class="edge"><title>freeBufferArray&#45;&gt;BUFFERS_ARRAY</title>
<path fill="none" stroke="green" d="M887.644,-503.829C880.553,-456.929 858.576,-323.015 824.146,-216 821.32,-207.215 817.554,-197.9 813.89,-189.569"/>
<polygon fill="green" stroke="green" points="817.018,-187.992 809.697,-180.333 810.644,-190.886 817.018,-187.992"/>
</g>
<!-- closeCamera -->
<g id="node25" class="node"><title>closeCamera</title>
<ellipse fill="none" stroke="black" cx="396.146" cy="-522" rx="56.59" ry="18"/>
<text text-anchor="middle" x="396.146" y="-518.3" font-family="Times,serif" font-size="14.00">closeCamera</text>
</g>
<!-- closeCamera&#45;&gt;OPEN -->
<g id="edge40" class="edge"><title>closeCamera&#45;&gt;OPEN</title>
<path fill="none" stroke="green" d="M361.524,-507.641C315.566,-487.376 240.146,-444.189 240.146,-379 240.146,-379 240.146,-379 240.146,-161 240.146,-114.962 256.295,-99.5953 293.146,-72 341,-36.1656 410.71,-24.4582 455.497,-20.6932"/>
<polygon fill="green" stroke="green" points="455.775,-24.1824 465.487,-19.9504 455.255,-17.2017 455.775,-24.1824"/>
</g>
<!-- closeCamera&#45;&gt;MMAP -->
<g id="edge41" class="edge"><title>closeCamera&#45;&gt;MMAP</title>
<path fill="none" stroke="red" d="M419.893,-505.465C435.621,-495.175 456.381,-481.594 473.235,-470.568"/>
<polygon fill="red" stroke="red" points="475.193,-473.469 481.646,-465.066 471.361,-467.611 475.193,-473.469"/>
</g>
</g>
</svg>
